<svg xmlns="http://www.w3.org/2000/svg" viewBox="0 0 1200 630" role="img">
  <defs>
    <linearGradient id="whbg" x1="0%" y1="0%" x2="100%" y2="100%">
      <stop offset="0%" stop-color="#0284C7"/>
      <stop offset="100%" stop-color="#0EA5E9"/>
    </linearGradient>
  </defs>
  <rect width="1200" height="630" fill="url(#whbg)"/>
  <circle cx="950" cy="120" r="220" fill="#fff" opacity="0.05"/>
  <circle cx="200" cy="500" r="150" fill="#fff" opacity="0.04"/>
  <!-- Water heater unit -->
  <g transform="translate(720, 100)">
    <rect x="0" y="0" width="180" height="280" rx="14" fill="#fff" opacity="0.15"/>
    <rect x="0" y="0" width="180" height="280" rx="14" stroke="#fff" stroke-width="3" fill="none" opacity="0.85"/>
    <rect x="20" y="20" width="140" height="3" rx="1.5" fill="#fff" opacity="0.7"/>
    <rect x="20" y="40" width="140" height="3" rx="1.5" fill="#fff" opacity="0.5"/>
    <rect x="20" y="60" width="140" height="3" rx="1.5" fill="#fff" opacity="0.5"/>
    <circle cx="90" cy="180" r="28" fill="#fff" opacity="0.2" stroke="#fff" stroke-width="2"/>
    <circle cx="90" cy="180" r="20" fill="none" stroke="#fff" stroke-width="1.5" opacity="0.5"/>
    <line x1="90" y1="180" x2="90" y2="166" stroke="#fff" stroke-width="2" stroke-linecap="round"/>
    <line x1="90" y1="180" x2="100" y2="184" stroke="#fff" stroke-width="2" stroke-linecap="round"/>
    <rect x="80" y="280" width="20" height="40" fill="#fff" opacity="0.6"/>
    <rect x="60" y="320" width="60" height="10" rx="2" fill="#fff" opacity="0.6"/>
  </g>
  <!-- Steam/heat waves -->
  <path d="M620 180 q10 -20 0 -40 q-10 -20 0 -40" stroke="#fff" stroke-width="2" fill="none" opacity="0.4"/>
  <path d="M960 200 q10 -20 0 -40 q-10 -20 0 -40" stroke="#fff" stroke-width="2" fill="none" opacity="0.3"/>
  <path d="M600 250 q10 -15 0 -30" stroke="#fff" stroke-width="2" fill="none" opacity="0.3"/>
  <!-- Water drops -->
  <path d="M580 380 c-3 -8 -10 -8 -10 0 c0 6 5 12 10 12 c5 0 10 -6 10 -12 c0 -8 -7 -8 -10 0z" fill="#fff" opacity="0.4"/>
  <path d="M620 420 c-2 -6 -7 -6 -7 0 c0 4 3.5 8 7 8 c3.5 0 7 -4 7 -8 c0 -6 -5 -6 -7 0z" fill="#fff" opacity="0.3"/>
</svg>
