<svg xmlns="http://www.w3.org/2000/svg" viewBox="0 0 1200 630" role="img">
  <defs>
    <linearGradient id="libg" x1="0%" y1="0%" x2="100%" y2="100%">
      <stop offset="0%" stop-color="#075985"/>
      <stop offset="100%" stop-color="#0EA5E9"/>
    </linearGradient>
  </defs>
  <rect width="1200" height="630" fill="url(#libg)"/>
  <circle cx="950" cy="120" r="220" fill="#fff" opacity="0.08"/>
  <circle cx="200" cy="500" r="150" fill="#fff" opacity="0.05"/>
  <!-- Pendant light -->
  <g transform="translate(580, 60)">
    <line x1="80" y1="0" x2="80" y2="40" stroke="#fff" stroke-width="2" opacity="0.5"/>
    <path d="M40 40 L120 40 L100 100 L60 100 Z" fill="#fff" opacity="0.9"/>
    <path d="M40 40 L120 40 L100 100 L60 100 Z" fill="#0EA5E9" opacity="0.3"/>
    <ellipse cx="80" cy="105" rx="22" ry="6" fill="#fff" opacity="0.6"/>
    <!-- Light glow -->
    <circle cx="80" cy="130" r="40" fill="#fff" opacity="0.15"/>
    <circle cx="80" cy="130" r="20" fill="#fff" opacity="0.2"/>
  </g>
  <!-- Downlight circles -->
  <circle cx="780" cy="280" r="20" fill="#fff" opacity="0.85"/>
  <circle cx="780" cy="280" r="32" fill="#fff" opacity="0.2"/>
  <circle cx="780" cy="280" r="50" fill="#fff" opacity="0.08"/>
  <circle cx="900" cy="200" r="14" fill="#fff" opacity="0.85"/>
  <circle cx="900" cy="200" r="22" fill="#fff" opacity="0.2"/>
  <circle cx="900" cy="200" r="36" fill="#fff" opacity="0.08"/>
  <circle cx="940" cy="380" r="18" fill="#fff" opacity="0.85"/>
  <circle cx="940" cy="380" r="28" fill="#fff" opacity="0.2"/>
  <!-- LED strip line -->
  <path d="M620 420 Q780 440 940 420" stroke="#fff" stroke-width="3" fill="none" opacity="0.7"/>
  <path d="M620 420 Q780 440 940 420" stroke="#fff" stroke-width="8" fill="none" opacity="0.3"/>
</svg>
