<svg xmlns="http://www.w3.org/2000/svg" viewBox="0 0 1200 630" role="img">
  <defs>
    <linearGradient id="abg" x1="0%" y1="0%" x2="100%" y2="100%">
      <stop offset="0%" stop-color="#075985"/>
      <stop offset="100%" stop-color="#0EA5E9"/>
    </linearGradient>
  </defs>
  <rect width="1200" height="630" fill="url(#abg)"/>
  <circle cx="980" cy="90" r="210" fill="#fff" opacity="0.05"/>
  <circle cx="200" cy="540" r="160" fill="#fff" opacity="0.04"/>
  <!-- Wall-mounted aircon unit -->
  <g transform="translate(850, 90)">
    <rect x="0" y="0" width="260" height="120" rx="16" fill="#fff" opacity="0.92"/>
    <rect x="16" y="14" width="228" height="10" rx="5" fill="#0EA5E9" opacity="0.5"/>
    <rect x="20" y="46" width="220" height="30" rx="6" fill="#075985" opacity="0.35"/>
    <rect x="20" y="88" width="220" height="6" rx="3" fill="#075985" opacity="0.3"/>
    <path d="M96 96 L164 96" stroke="#0EA5E9" strokeWidth="3" stroke-linecap="round"/>
    <!-- airflow -->
    <path d="M0 150 C 20 175, 40 175, 60 150" stroke="#fff" strokeWidth="10" fill="none" stroke-linecap="round" opacity="0.6"/>
    <path d="M30 180 C 50 205, 70 205, 90 180" stroke="#fff" strokeWidth="10" fill="none" stroke-linecap="round" opacity="0.45"/>
    <path d="M60 210 C 80 235, 100 235, 120 210" stroke="#fff" strokeWidth="10" fill="none" stroke-linecap="round" opacity="0.3"/>
  </g>
  <!-- Snowflake accent -->
  <g transform="translate(180, 140)" stroke="#fff" strokeWidth="12" stroke-linecap="round" opacity="0.9">
    <path d="M0 -80 L0 80"/><path d="M-69 -40 L69 40"/><path d="M-69 40 L69 -40"/>
    <path d="M0 -80 L-18 -58 M0 -80 L18 -58 M0 80 L-18 58 M0 80 L18 58"/>
    <path d="M-69 -40 L-49 -52 M-69 -40 L-52 -49 M69 40 L49 52 M69 40 L52 49"/>
    <path d="M-69 40 L-49 52 M-69 40 L-52 49 M69 -40 L49 -52 M69 -40 L52 -49"/>
  </g>
  <text x="80" y="470" font-family="Arial, sans-serif" font-size="30" font-weight="700" fill="#E0F2FE" letter-spacing="4">AIRCON SERVICE &amp; INSTALLATION</text>
  <text x="80" y="520" font-family="Arial, sans-serif" font-size="58" font-weight="800" fill="#fff">Servicing · Repair · Gas · Install</text>
  <text x="80" y="566" font-family="Arial, sans-serif" font-size="26" font-weight="600" fill="#BAE6FD">From RM 129 · KL &amp; Selangor</text>
</svg>
