<svg xmlns="http://www.w3.org/2000/svg" viewBox="0 0 1200 630" role="img">
  <defs>
    <linearGradient id="flbg" x1="0%" y1="0%" x2="100%" y2="100%">
      <stop offset="0%" stop-color="#075985"/>
      <stop offset="100%" stop-color="#0EA5E9"/>
    </linearGradient>
  </defs>
  <rect width="1200" height="630" fill="url(#flbg)"/>
  <circle cx="950" cy="120" r="220" fill="#fff" opacity="0.05"/>
  <circle cx="200" cy="500" r="150" fill="#fff" opacity="0.04"/>
  <!-- Floor planks in perspective -->
  <g transform="translate(450, 100)">
    <rect x="0" y="200" width="300" height="20" fill="#fff" opacity="0.2"/>
    <rect x="0" y="220" width="300" height="20" fill="#fff" opacity="0.3"/>
    <rect x="0" y="240" width="300" height="20" fill="#fff" opacity="0.4"/>
    <rect x="0" y="260" width="300" height="20" fill="#fff" opacity="0.5"/>
    <rect x="0" y="280" width="300" height="20" fill="#fff" opacity="0.6"/>
    <!-- Plank divisions -->
    <line x1="50" y1="200" x2="50" y2="220" stroke="#0284C7" stroke-width="1" opacity="0.6"/>
    <line x1="110" y1="200" x2="110" y2="220" stroke="#0284C7" stroke-width="1" opacity="0.6"/>
    <line x1="170" y1="200" x2="170" y2="220" stroke="#0284C7" stroke-width="1" opacity="0.6"/>
    <line x1="230" y1="200" x2="230" y2="220" stroke="#0284C7" stroke-width="1" opacity="0.6"/>
    <line x1="50" y1="220" x2="50" y2="240" stroke="#0284C7" stroke-width="1" opacity="0.5"/>
    <line x1="110" y1="220" x2="110" y2="240" stroke="#0284C7" stroke-width="1" opacity="0.5"/>
    <line x1="170" y1="220" x2="170" y2="240" stroke="#0284C7" stroke-width="1" opacity="0.5"/>
    <line x1="230" y1="220" x2="230" y2="240" stroke="#0284C7" stroke-width="1" opacity="0.5"/>
    <line x1="50" y1="240" x2="50" y2="260" stroke="#0284C7" stroke-width="1" opacity="0.4"/>
    <line x1="110" y1="240" x2="110" y2="260" stroke="#0284C7" stroke-width="1" opacity="0.4"/>
    <line x1="170" y1="240" x2="170" y2="260" stroke="#0284C7" stroke-width="1" opacity="0.4"/>
    <line x1="230" y1="240" x2="230" y2="260" stroke="#0284C7" stroke-width="1" opacity="0.4"/>
  </g>
  <!-- Click-lock icons -->
  <circle cx="900" cy="200" r="40" fill="#fff" opacity="0.15"/>
  <path d="M880 200 L920 200 M890 195 L910 195 M890 205 L910 205" stroke="#fff" stroke-width="2" opacity="0.8"/>
</svg>
