<svg xmlns="http://www.w3.org/2000/svg" viewBox="0 0 1200 630" role="img">
  <defs>
    <linearGradient id="ebg" x1="0%" y1="0%" x2="100%" y2="100%">
      <stop offset="0%" stop-color="#075985"/>
      <stop offset="100%" stop-color="#0EA5E9"/>
    </linearGradient>
  </defs>
  <rect width="1200" height="630" fill="url(#ebg)"/>
  <circle cx="950" cy="120" r="220" fill="#fff" opacity="0.05"/>
  <circle cx="200" cy="500" r="150" fill="#fff" opacity="0.04"/>
  <!-- Lightning bolt -->
  <g transform="translate(750, 150)">
    <path d="M120 0 L40 160 L100 160 L60 280 L200 100 L130 100 L180 0 Z" fill="#fff" opacity="0.85"/>
    <path d="M120 0 L40 160 L100 160 L60 280 L200 100 L130 100 L180 0 Z" fill="#0EA5E9" opacity="0.3"/>
  </g>
  <!-- Plug shape -->
  <g transform="translate(560, 380)">
    <rect x="0" y="0" width="80" height="60" rx="8" fill="#fff" opacity="0.5"/>
    <circle cx="22" cy="30" r="6" fill="#075985"/>
    <circle cx="58" cy="30" r="6" fill="#075985"/>
    <rect x="34" y="60" width="12" height="20" fill="#fff" opacity="0.4"/>
  </g>
  <!-- Spark dots -->
  <circle cx="700" cy="280" r="6" fill="#fff" opacity="0.4"/>
  <circle cx="950" cy="450" r="8" fill="#fff" opacity="0.3"/>
  <circle cx="900" cy="350" r="4" fill="#fff" opacity="0.5"/>
  <circle cx="780" cy="450" r="5" fill="#fff" opacity="0.4"/>
</svg>
