<svg xmlns="http://www.w3.org/2000/svg" viewBox="0 0 1200 630" role="img">
  <defs>
    <linearGradient id="hbg" x1="0%" y1="0%" x2="100%" y2="100%">
      <stop offset="0%" stop-color="#0284C7"/>
      <stop offset="100%" stop-color="#0EA5E9"/>
    </linearGradient>
  </defs>
  <rect width="1200" height="630" fill="url(#hbg)"/>
  <circle cx="980" cy="90" r="210" fill="#fff" opacity="0.05"/>
  <circle cx="200" cy="540" r="160" fill="#fff" opacity="0.04"/>
  <!-- Wrench + tools icon -->
  <g transform="translate(850, 100)">
    <rect x="30" y="0" width="120" height="30" rx="8" fill="#fff" opacity="0.9"/>
    <path d="M130 30 L130 200 C130 215 115 230 100 230 L80 230 C65 230 50 215 50 200 L50 30" stroke="#fff" strokeWidth="16" fill="none" stroke-linecap="round"/>
    <path d="M50 100 L30 100 C15 100 0 115 0 130 L0 160 C0 175 15 190 30 190 L50 190" stroke="#fff" strokeWidth="16" fill="none" stroke-linecap="round"/>
    <circle cx="200" cy="180" r="30" fill="#fff" opacity="0.3"/>
    <rect x="185" y="140" width="30" height="80" rx="6" fill="#fff" opacity="0.5"/>
  </g>
  <!-- Text -->
  <text x="80" y="200" font-family="Arial, sans-serif" font-size="28" font-weight="700" fill="#E0F2FE" letter-spacing="4">PREMIUM HOME SERVICES</text>
  <text x="80" y="280" font-family="Arial, sans-serif" font-size="72" font-weight="900" fill="#ffffff" letter-spacing="-1">Handyman Services</text>
  <text x="80" y="350" font-family="Arial, sans-serif" font-size="22" font-weight="500" fill="#E0F2FE">TV Mounting • Furniture Assembly • Odd Jobs • From RM 150</text>
  <!-- Badge -->
  <rect x="80" y="400" width="200" height="44" rx="22" fill="#fff" opacity="0.15"/>
  <text x="180" y="428" font-family="Arial, sans-serif" font-size="16" font-weight="700" fill="#fff" text-anchor="middle">Same-Day Service</text>
</svg>