<svg xmlns="http://www.w3.org/2000/svg" viewBox="0 0 1200 630" role="img">
  <defs>
    <linearGradient id="cbg" x1="0%" y1="0%" x2="100%" y2="100%">
      <stop offset="0%" stop-color="#075985"/>
      <stop offset="100%" stop-color="#0EA5E9"/>
    </linearGradient>
  </defs>
  <rect width="1200" height="630" fill="url(#cbg)"/>
  <circle cx="950" cy="130" r="200" fill="#fff" opacity="0.05"/>
  <circle cx="150" cy="500" r="160" fill="#fff" opacity="0.04"/>
  <!-- Ceiling grid icon -->
  <g transform="translate(820, 130)">
    <rect x="0" y="0" width="220" height="20" rx="4" fill="#fff" opacity="0.9"/>
    <rect x="0" y="230" width="220" height="20" rx="4" fill="#fff" opacity="0.9"/>
    <line x1="40" y1="20" x2="40" y2="230" stroke="#fff" strokeWidth="6" opacity="0.7"/>
    <line x1="110" y1="20" x2="110" y2="230" stroke="#fff" strokeWidth="6" opacity="0.7"/>
    <line x1="180" y1="20" x2="180" y2="230" stroke="#fff" strokeWidth="6" opacity="0.7"/>
    <rect x="70" y="90" width="80" height="60" rx="4" fill="#fff" opacity="0.3"/>
    <circle cx="110" cy="120" r="15" fill="#fff" opacity="0.5"/>
    <circle cx="110" cy="120" r="7" fill="#fff" opacity="0.9"/>
  </g>
  <!-- Text -->
  <text x="80" y="200" font-family="Arial, sans-serif" font-size="28" font-weight="700" fill="#E0F2FE" letter-spacing="4">PREMIUM HOME SERVICES</text>
  <text x="80" y="280" font-family="Arial, sans-serif" font-size="72" font-weight="900" fill="#ffffff" letter-spacing="-1">Plaster Ceiling</text>
  <text x="80" y="350" font-family="Arial, sans-serif" font-size="22" font-weight="500" fill="#E0F2FE">Installation • Repair • Design • KL &amp; Selangor • From RM 350</text>
  <!-- Badge -->
  <rect x="80" y="400" width="200" height="44" rx="22" fill="#fff" opacity="0.15"/>
  <text x="180" y="428" font-family="Arial, sans-serif" font-size="16" font-weight="700" fill="#fff" text-anchor="middle">90-Day Warranty</text>
</svg>